<svg t="1629968656629" class="icon" viewBox="0 0 1024 1024" version="1.1" xmlns="http://www.w3.org/2000/svg" p-id="5537" width="200" height="200"><path d="M979.456 307.712c-17.408 0-31.744-14.336-31.744-31.744V75.776h-193.536c-17.408 1.024-32.256-12.8-32.768-30.208s12.8-32.256 30.208-32.768h227.84c17.408 0 31.744 14.336 31.744 31.744V276.48c0 17.408-14.336 31.232-31.744 31.232zM44.544 301.056c-17.408 0-31.744-14.336-31.744-31.744v-225.28c0-17.408 13.824-31.744 31.232-31.744H276.48c17.408-1.024 32.256 12.8 32.768 30.208s-12.8 32.256-30.208 32.768H75.776v193.536c0 18.432-13.824 32.256-31.232 32.256 0 0-0.512 0 0 0z m225.28 710.144h-225.28c-17.408 0-31.744-14.336-31.744-31.744V747.52c-1.024-17.408 12.8-32.256 30.208-32.768 17.408-1.024 32.256 12.8 32.768 30.208v203.264h193.536c17.408-1.024 32.256 12.8 32.768 30.208 1.024 17.408-12.8 32.256-30.208 32.768h-2.048z m709.632 0H747.52c-17.408 1.024-32.256-12.8-32.768-30.208-1.024-17.408 12.8-32.256 30.208-32.768h202.752v-194.048c-1.024-17.408 12.8-32.256 30.208-32.768 17.408-1.024 32.256 12.8 32.768 30.208v227.84c0.512 17.408-13.824 31.744-31.232 31.744zM788.48 741.888c-12.288 0-23.04-7.168-28.672-17.92l-80.384-168.96-198.144-2.56c-14.336 0-26.624-9.728-30.208-23.552l-56.32-209.92-87.04 250.368c-4.608 12.8-16.384 20.992-29.696 20.992H95.232c-17.408 1.024-32.256-12.8-32.768-30.208-1.024-17.408 12.8-32.256 30.208-32.768H256l113.152-326.144c4.608-13.312 17.408-21.504 31.232-20.992 13.824 0.512 25.6 9.728 29.184 23.552l76.288 286.208 194.048 2.048c12.288 0 23.04 7.168 28.16 17.92l55.296 116.736 37.376-109.568c4.608-12.8 16.384-21.504 29.696-21.504h77.312c17.408-1.024 32.256 12.8 32.768 30.208 1.024 17.408-12.8 32.256-30.208 32.768h-57.344l-55.296 161.792c-4.096 12.288-15.36 20.48-28.16 21.504h-1.024z" fill="currentColor" p-id="5538"></path><path d="M270.848 1018.88H44.544c-21.504 0-39.424-17.408-39.424-39.424V747.52c-1.024-21.504 15.872-39.424 37.376-40.448 10.752-0.512 20.48 3.072 28.16 10.24s12.288 16.896 12.8 27.136V940.544h185.856c21.504-1.024 39.424 15.872 40.448 37.376 0.512 10.24-3.072 20.48-10.24 28.16s-16.896 12.288-27.136 12.8h-1.536zM44.544 722.432h-1.024c-13.312 0.512-23.552 11.776-23.04 25.088v232.448c0 13.312 10.752 24.064 24.064 24.064h228.864c6.144-0.512 11.264-3.072 15.36-7.68 4.096-4.608 6.656-10.752 6.144-17.408-0.512-13.312-11.776-23.552-25.088-23.04H68.096V747.52v-2.56c-0.512-6.144-3.072-12.288-7.68-16.384-4.608-4.096-10.24-6.144-15.872-6.144z m701.44 296.448c-9.728 0-18.944-3.584-26.112-10.24-7.68-7.168-12.288-16.896-12.8-27.136-1.024-21.504 15.872-39.936 37.376-40.96H940.544v-186.368c-1.024-21.504 15.872-39.424 37.376-40.448 10.24-0.512 20.48 3.072 28.16 10.24s12.288 16.896 12.8 27.136v228.352c0 20.48-15.872 37.376-35.84 38.912h-235.52c-0.512 0.512-1.024 0.512-1.536 0.512z m0-63.488h-1.024c-13.312 0.512-23.552 11.776-23.04 25.088 0.512 6.144 3.072 12.288 7.68 16.384 4.608 4.096 10.752 6.656 17.408 6.144h232.448c13.312 0 24.064-10.752 24.064-24.064v-225.28-2.56c-0.512-13.312-11.776-23.552-25.088-23.04-13.312 0.512-23.552 11.776-23.04 25.088v201.728H747.52c-0.512 0.512-1.024 0.512-1.536 0.512z m42.496-205.824c-15.36 0-29.184-8.704-35.328-22.528l-78.336-164.864-193.536-2.048c-17.408 0-32.768-12.288-37.376-29.184L394.24 345.088l-78.848 226.816c-5.632 15.872-20.48 26.624-36.864 26.624H95.232c-21.504 1.024-39.424-15.872-40.448-37.376-0.512-10.24 3.072-20.48 10.24-28.16s16.896-12.288 27.136-12.8h158.208l111.616-321.024c5.632-16.384 21.504-27.136 38.912-26.624 17.408 0.512 31.744 12.288 36.352 29.184L512 481.792l188.416 2.048c14.848 0 28.672 8.704 34.816 22.528l47.104 99.84 31.232-91.648c5.632-15.872 20.48-26.624 36.864-26.624h77.312c21.504-1.024 39.424 15.872 40.448 37.376 1.024 21.504-15.872 39.936-37.376 40.96H878.08L824.32 722.944c-5.12 15.36-18.944 25.6-34.816 26.624h-1.024zM395.776 292.864l62.464 233.984c2.56 10.24 12.288 17.408 23.04 17.92l203.264 2.048 82.432 173.568c4.096 8.192 12.288 13.824 21.504 13.824h1.536c9.728-0.512 17.92-6.656 20.992-15.872l57.344-166.912h62.976c13.312-0.512 23.552-11.776 23.04-25.088-0.512-13.312-11.776-23.552-25.088-23.04h-77.824c-10.24 0-19.456 6.656-22.528 16.384l-43.52 127.488-63.488-134.144c-4.096-8.192-12.288-13.312-21.504-13.824l-200.192-2.048-77.824-291.84c-2.56-10.24-11.776-17.408-22.016-17.408-10.752-0.512-19.968 6.144-23.552 15.872l-115.2 331.264h-168.96c-6.144 0.512-12.288 3.072-16.384 7.68-4.096 4.608-6.656 10.752-6.144 17.408 0.512 13.312 11.776 23.552 25.088 23.04h183.296c10.24 0 18.944-6.656 22.528-15.872l94.72-274.432z m583.68 22.528c-21.504 0-39.424-17.408-39.424-39.424V83.456h-185.856c-21.504 1.024-39.424-15.872-40.448-37.376-0.512-10.24 3.072-20.48 10.24-28.16s16.896-12.288 27.136-12.8h228.352c21.504 0 39.424 17.408 39.424 39.424V276.48c0 21.504-17.92 38.912-39.424 38.912z m-31.744-247.296h7.68V276.48c0 13.312 10.752 24.064 24.064 24.064s24.064-10.752 24.064-24.064V44.544c0-13.312-10.752-24.064-24.064-24.064h-227.84c-6.144 0.512-12.288 3.072-16.384 7.68-4.096 4.608-6.656 10.752-6.144 17.408 0.512 13.312 11.776 23.552 25.088 23.04l193.536-0.512zM44.544 308.736c-21.504 0-39.424-17.408-39.424-39.424v-225.28C5.12 23.04 22.528 5.12 44.032 5.12H276.48c10.24-0.512 19.968 3.072 27.648 10.24s12.288 16.896 12.8 27.136c1.024 21.504-15.872 39.936-37.376 40.96H83.456v185.856c0 22.016-17.408 39.424-38.912 39.424zM277.504 20.48H44.544C31.232 20.48 20.48 31.232 20.48 44.544v225.28c0 13.312 10.752 23.552 23.552 24.064 13.312 0 24.064-10.752 24.064-24.064V68.096h210.944c12.8-0.512 23.04-11.776 22.528-24.576C301.056 30.72 290.304 20.48 277.504 20.48z" fill="currentColor" p-id="5539"></path></svg>