<svg t="1622099609406" class="icon" viewBox="0 0 1024 1024" version="1.1" xmlns="http://www.w3.org/2000/svg" p-id="4076" width="200" height="200"><path d="M578.048 129.024v184.32h226.304l-226.304-184.32z m264.704 216.064v34.816H512V114.688H181.248v794.112h662.016l-0.512-563.712zM181.248 48.64h403.456l300.544 244.736c15.36 12.8 24.576 31.232 24.576 51.2v564.224c0 36.352-29.696 66.048-66.048 66.048H181.248c-36.352 0-66.048-29.696-66.048-66.048V114.688c-0.512-36.352 29.184-66.048 66.048-66.048z" p-id="4077"></path><path d="M365.056 516.608c15.36 11.264 24.064 29.184 26.624 53.248h-35.84c-3.072-13.312-8.704-23.552-16.896-29.184-8.192-6.144-20.48-8.704-36.352-8.704-13.824 0-24.064 2.048-31.744 5.632-9.216 4.608-13.312 12.288-13.312 22.528 0 9.216 5.12 16.896 15.36 22.528 4.608 2.56 17.408 7.168 37.376 13.312 29.696 9.216 48.64 16.384 57.344 21.504 18.944 11.264 28.672 27.136 28.672 47.104 0 19.456-7.68 35.328-23.04 46.592-15.36 11.264-37.376 16.896-65.024 16.896-27.136 0-48.128-5.12-63.488-15.872-18.432-12.8-28.672-33.28-30.208-60.928h35.84c2.56 16.384 8.192 28.672 17.92 35.84 8.704 6.144 22.016 9.728 39.936 9.728 15.872 0 28.672-2.56 37.888-8.192 9.216-5.632 14.336-12.8 14.336-22.016 0-11.776-7.168-20.992-20.48-27.648-4.096-2.048-18.432-7.168-42.496-14.336-27.136-8.704-44.032-14.848-50.176-18.432-16.896-10.24-25.088-25.088-25.088-44.032 0-19.456 8.192-34.816 24.576-45.568 15.36-10.752 34.816-15.872 58.368-15.872 25.088 0 45.568 5.12 59.904 15.872z" p-id="4078"></path><path d="M308.224 731.136c-27.648 0-49.152-5.632-64.512-15.872-18.944-13.312-29.696-34.816-31.232-62.976v-2.56h40.448l0.512 2.048c2.56 15.872 8.192 27.648 16.896 33.792 8.192 6.144 21.504 9.216 38.4 9.216 15.36 0 27.648-2.56 36.864-7.68 8.704-5.12 12.8-11.776 12.8-19.456 0-10.24-6.656-18.944-18.944-25.6-4.608-2.048-20.48-7.68-42.496-14.336-27.648-8.704-44.544-14.848-50.688-18.432-17.408-10.752-26.624-26.112-26.624-46.592s8.704-36.352 25.6-48.128c15.872-11.264 35.328-16.384 59.904-16.384 26.624 0 47.104 5.632 61.952 16.384 15.872 11.776 25.088 30.208 27.648 54.784v2.56h-40.448l-0.512-2.048c-3.072-12.8-8.192-22.016-15.872-27.648-7.168-5.632-18.944-8.192-34.816-8.192-13.824 0-23.552 2.048-30.208 5.632-8.192 4.096-12.288 10.752-12.288 20.48 0 8.704 4.608 15.36 13.824 19.968 2.56 1.536 11.264 5.12 36.864 13.312 28.16 8.704 48.64 16.384 57.856 21.504 19.968 11.776 29.696 28.672 29.696 49.664 0 20.48-8.192 36.864-24.064 48.64s-38.4 17.92-66.56 17.92z m-90.624-76.8c2.048 25.6 11.776 44.544 28.672 56.32 14.336 10.24 35.328 15.36 61.952 15.36 27.136 0 48.64-5.632 63.488-16.384 14.336-10.752 22.016-25.6 22.016-44.544 0-19.456-8.704-34.304-27.136-45.056-9.216-5.12-29.184-12.8-56.832-21.504-13.824-4.608-31.744-10.24-37.888-13.824-10.752-5.632-16.896-14.336-16.896-24.576 0-11.776 5.12-19.968 14.848-25.088 7.68-4.096 18.432-6.144 32.768-6.144 17.408 0 29.696 3.072 37.888 9.216 8.192 6.144 13.824 15.872 17.408 28.672h30.72c-2.56-21.504-10.752-37.888-25.088-48.64-13.824-10.24-33.792-15.36-58.88-15.36-23.552 0-41.984 5.12-56.832 15.36-15.872 10.752-23.552 24.576-23.552 43.52 0 18.432 7.68 32.256 24.064 41.984 6.144 3.584 23.04 9.728 49.664 18.432 22.528 6.656 38.4 12.288 43.008 14.336 14.848 7.168 22.016 17.408 22.016 29.696 0 9.728-5.12 17.92-15.36 24.064-9.728 5.632-23.04 8.192-39.424 8.192-18.432 0-32.256-3.584-41.472-10.24-9.728-7.168-15.872-18.944-18.432-35.328h-30.72zM603.648 532.992c18.432 20.48 27.648 48.128 27.648 81.92 0 32.768-8.704 59.392-26.112 79.872 8.192 10.24 16.384 21.504 24.064 33.28l-23.552 20.48c-8.192-11.776-16.384-23.552-24.064-33.792-15.872 9.216-35.328 14.336-57.344 14.336-33.792 0-60.416-11.264-79.36-32.768-18.432-20.992-27.136-48.128-27.136-80.896 0-33.28 8.704-60.416 27.136-81.408 18.944-22.016 45.568-32.768 79.36-32.768 33.792-0.512 59.904 10.24 79.36 31.744z m-132.096 22.016c-11.776 14.848-17.92 34.304-17.92 59.392 0 25.088 5.632 44.544 17.92 59.392 12.288 14.848 30.208 22.528 52.736 22.528 14.336 0 26.624-3.072 37.376-8.704-11.264-13.312-21.504-25.6-31.744-36.352l20.992-20.48c10.752 11.264 21.504 23.552 31.744 35.84 8.192-13.312 12.288-31.232 12.288-52.224 0-25.6-6.144-46.08-17.92-60.928-12.288-14.848-29.696-22.016-52.736-22.016-22.528 0.512-39.936 8.192-52.736 23.552z" p-id="4079"></path><path d="M605.696 752.128l-1.536-2.56c-8.704-12.288-15.872-22.528-23.04-31.744-16.384 8.704-35.328 13.312-56.832 13.312-34.304 0-61.44-11.264-81.408-33.28-18.432-20.992-28.16-49.152-28.16-82.944 0-34.816 9.216-61.952 28.16-82.944 19.456-22.528 46.592-33.792 81.408-33.792 34.304 0 61.44 11.264 81.408 33.28 18.944 20.992 28.16 49.152 28.16 83.456 0 32.256-8.704 59.392-25.6 79.872 7.168 9.216 15.36 19.968 23.04 31.744l1.536 2.048-27.136 23.552z m-23.04-40.96l1.536 1.536c7.168 9.216 14.336 19.456 22.528 31.744l19.456-16.896c-7.68-11.264-15.872-22.016-23.04-31.232l-1.024-1.536 1.536-1.536c16.896-19.968 25.6-46.08 25.6-78.336 0-33.28-9.216-59.904-27.136-79.872-18.432-20.992-44.544-31.744-77.312-31.744-33.28 0-58.88 10.24-77.312 31.744-17.92 20.48-26.624 46.592-26.624 79.872s8.704 58.88 26.624 79.36c18.432 20.992 44.544 31.744 77.312 31.744 21.504 0 40.448-4.608 56.32-13.824l1.536-1.024z m-58.368-11.776c-23.552 0-41.984-8.192-54.784-23.552-12.288-15.36-18.432-35.328-18.432-60.928 0-26.112 6.144-46.08 18.432-61.44 12.8-15.872 31.232-24.064 54.784-24.064s41.984 7.68 54.272 22.528c12.288 15.36 18.944 36.352 18.944 62.464 0 21.504-4.096 39.424-12.8 53.76l-2.048 3.072-2.56-2.56c-9.728-11.264-19.968-22.528-30.208-33.792l-17.408 16.896c9.728 10.24 19.456 21.504 30.208 34.304l2.048 2.56-2.56 1.536c-10.24 6.144-23.04 9.216-37.888 9.216z m-50.688-142.336c-11.776 14.336-17.408 33.28-17.408 57.856 0 24.576 5.632 43.52 17.408 57.856 11.776 14.336 28.672 22.016 50.688 22.016 12.288 0 23.552-2.56 33.28-7.168-10.24-12.8-19.968-23.552-29.696-33.792l-1.536-2.048 24.576-24.064 1.536 2.048c10.24 10.752 19.968 21.504 29.696 32.768 6.656-12.8 10.24-29.184 10.24-47.616 0-25.088-6.144-45.056-17.408-59.392-11.776-13.824-28.16-20.992-50.688-20.992-22.016 0-38.4 7.68-50.688 22.528z" p-id="4080"></path><path d="M700.928 504.832v188.416H819.2v30.72h-154.112V504.832h35.84z" p-id="4081"></path><path d="M821.76 726.528h-159.232V502.272h40.96v188.416h118.784v35.84z m-154.112-5.12h148.992v-25.6h-118.784V507.392h-30.72v214.016z" p-id="4082"></path></svg>