<svg t="1680164846813" class="icon" viewBox="0 0 1024 1024" version="1.1" xmlns="http://www.w3.org/2000/svg" p-id="6087" width="200" height="200"><path d="M901.71999969 384.48000031l-262.15999969-262.16000062A35.20000031 35.20000031 0 0 0 614.55999969 111.99999969a35.20000031 35.20000031 0 0 0-24.99999938 10.32L418.16 293.84a343.60000031 343.60000031 0 0 0-39.16000031-2.16 350.64 350.64 0 0 0-219.67999969 76.92 35.35999969 35.35999969 0 0 0-2.88 52.56l193.32 193.32-229.2 228.96a16.8 16.8 0 0 0-4.87999969 10.39999969l-3.6 39.6a16.96000031 16.96000031 0 0 0 16.92 18.52000031c0.52000031 0 1.03999969 0 1.59999938-0.12l39.6-3.6a16.8 16.8 0 0 0 10.40000062-4.92l229.15999969-229.15999969 193.32 193.32a35.20000031 35.20000031 0 0 0 25.00000031 10.32 35.20000031 35.20000031 0 0 0 27.55999969-13.2 351.40000031 351.40000031 0 0 0 74.68000031-258.96l171.39999938-171.40000031a35.23999969 35.23999969 0 0 0 0-49.75999969z m-225.67999969 167.19999938l-26.04 26.08000031 4.00000031 36.6a276.55999969 276.55999969 0 0 1-32.32000031 163.75999969L246.03999969 402.24000031a275.20000031 275.20000031 0 0 1 163.72000031-32.36000062l36.6 4.04000062 26.08000031-26.04 142.23999938-142.24000031 203.72000062 203.71999969-142.36000031 142.36000031z"   p-id="6088"></path></svg>