<?xml version="1.0" standalone="no"?><!DOCTYPE svg PUBLIC "-//W3C//DTD SVG 1.1//EN" "http://www.w3.org/Graphics/SVG/1.1/DTD/svg11.dtd"><svg t="1701423316597" class="icon" viewBox="0 0 1024 1024" version="1.1" xmlns="http://www.w3.org/2000/svg" p-id="4698" xmlns:xlink="http://www.w3.org/1999/xlink" width="200" height="200"><path d="M145.664 573.226667L551.893333 166.997333l251.434667 50.282667 50.282667 251.413333L447.36 874.922667 145.664 573.226667zM557.44 81.066667a64 64 0 0 0-57.813333 17.493333L70.250667 528a64 64 0 0 0 0 90.496l331.861333 331.882667a64 64 0 0 0 90.517333 0L922.005333 520.96a64 64 0 0 0 17.493334-57.813333L884.224 186.602667a64 64 0 0 0-50.197333-50.218667L557.44 81.066667z m137.536 267.648a21.333333 21.333333 0 0 1-31.829333 18.581333 21.333333 21.333333 0 0 1 21.098666-37.098667 21.333333 21.333333 0 0 1 10.730667 18.517334z m-21.333333-64a64 64 0 1 0 0.085333 128.064 64 64 0 1 0-0.085333-128.064z" fill="#4E5969" p-id="4699"></path></svg>